<svg width="32" height="32" viewBox="0 0 32 32" fill="none" xmlns="http://www.w3.org/2000/svg">
<path d="M2.18945 10.266V8.49512H5.36861V24.9642H2.18945V12.6761C2.18945 12.3882 2.42279 12.1549 2.71063 12.1549H3.9013" stroke="#FF7F49" stroke-width="0.521173" stroke-linecap="round" stroke-linejoin="round"/>
<path d="M13.0985 17.7204L10.5389 14.5605C10.508 14.5224 10.4463 14.5442 10.4463 14.5933V24.8599C10.4463 24.8887 10.423 24.9121 10.3942 24.9121H7.55798C7.52919 24.9121 7.50586 24.8887 7.50586 24.8599V8.65147C7.50586 8.62268 7.52919 8.59935 7.55798 8.59935H9.27798C9.43366 8.59935 9.58118 8.66894 9.68018 8.78907L16.1506 16.6406C16.2276 16.7339 16.2696 16.8511 16.2696 16.972V24.8599C16.2696 24.8887 16.2929 24.9121 16.3217 24.9121H19.3886C19.4174 24.9121 19.4407 24.8887 19.4407 24.8599V8.65147C19.4407 8.62268 19.4174 8.59935 19.3886 8.59935H17.3775C17.1914 8.59935 17.0194 8.69858 16.9263 8.85969L15.1165 11.9905" stroke="white" stroke-width="0.521173" stroke-linecap="round" stroke-linejoin="round"/>
<path d="M21.6539 16.4944V8.54723C21.6539 8.51845 21.6773 8.49512 21.7061 8.49512H29.7593C29.7881 8.49512 29.8114 8.51845 29.8114 8.54723V11.2663C29.8114 11.295 29.7881 11.3184 29.7593 11.3184H24.969C24.9403 11.3184 24.9169 11.3417 24.9169 11.3705V15.1483C24.9169 15.177 24.9403 15.2004 24.969 15.2004H28.6112C28.64 15.2004 28.6633 15.2237 28.6633 15.2525V17.7951C28.6633 17.8239 28.64 17.8472 28.6112 17.8472H22.2544C21.8227 17.8472 21.4727 18.1972 21.4727 18.6289V24.9121C21.4727 24.9408 21.496 24.9642 21.5248 24.9642H29.7593C29.7881 24.9642 29.8114 24.9408 29.8114 24.9121V22.193C29.8114 22.1642 29.7881 22.1409 29.7593 22.1409H24.969C24.9403 22.1409 24.9169 22.1176 24.9169 22.0888V20.1999" stroke="white" stroke-width="0.521173" stroke-linecap="round" stroke-linejoin="round"/>
</svg>
