<svg width="18" height="30" viewBox="0 0 18 30" fill="none" xmlns="http://www.w3.org/2000/svg">
<path d="M16.4982 0.006242L12.6079 0C8.23734 0 5.41287 2.89785 5.41287 7.38304V10.7871H1.50136C1.16336 10.7871 0.889648 11.0611 0.889648 11.3991V16.3313C0.889648 16.6693 1.16367 16.943 1.50136 16.943H5.41287V29.3883C5.41287 29.7263 5.68658 30 6.02458 30H11.128C11.466 30 11.7397 29.726 11.7397 29.3883V16.943H16.3132C16.6512 16.943 16.9249 16.6693 16.9249 16.3313L16.9267 11.3991C16.9267 11.2369 16.8621 11.0814 16.7476 10.9666C16.6331 10.8517 16.477 10.7871 16.3147 10.7871H11.7397V7.90144C11.7397 6.51447 12.0702 5.81037 13.8769 5.81037L16.4976 5.80943C16.8353 5.80943 17.109 5.53541 17.109 5.19772V0.617958C17.109 0.280578 16.8356 0.0068662 16.4982 0.006242Z" fill="white"/>
</svg>
