<svg width="23" height="23" viewBox="0 0 23 23" fill="none" xmlns="http://www.w3.org/2000/svg">
<path fill-rule="evenodd" clip-rule="evenodd" d="M0.561379 0.561379C1.30988 -0.187126 2.52345 -0.187126 3.27195 0.561379L11.5 8.78942L19.728 0.561379C20.4765 -0.187126 21.6901 -0.187126 22.4386 0.561379C23.1871 1.30988 23.1871 2.52345 22.4386 3.27195L14.2106 11.5L22.4386 19.728C23.1871 20.4765 23.1871 21.6901 22.4386 22.4386C21.6901 23.1871 20.4765 23.1871 19.728 22.4386L11.5 14.2106L3.27195 22.4386C2.52345 23.1871 1.30988 23.1871 0.561379 22.4386C-0.187126 21.6901 -0.187126 20.4765 0.561379 19.728L8.78942 11.5L0.561379 3.27195C-0.187126 2.52345 -0.187126 1.30988 0.561379 0.561379Z" fill="#1B1A1F"/>
</svg>
