<svg width="30" height="21" viewBox="0 0 30 21" fill="none" xmlns="http://www.w3.org/2000/svg">
<path d="M28.4713 3.97072C28.1472 2.76583 27.1972 1.81603 25.9925 1.49159C23.7916 0.889404 14.9879 0.889404 14.9879 0.889404C14.9879 0.889404 6.18463 0.889404 3.98376 1.46876C2.80221 1.79286 1.82906 2.76601 1.50497 3.97072C0.925781 6.17142 0.925781 10.7354 0.925781 10.7354C0.925781 10.7354 0.925781 15.3223 1.50497 17.5C1.82941 18.7048 2.77904 19.6546 3.98393 19.979C6.2078 20.5814 14.9883 20.5814 14.9883 20.5814C14.9883 20.5814 23.7916 20.5814 25.9925 20.002C27.1974 19.6777 28.1472 18.7279 28.4716 17.5232C29.0506 15.3223 29.0506 10.7586 29.0506 10.7586C29.0506 10.7586 29.0738 6.17142 28.4713 3.97072ZM12.1851 14.9517V6.51904L19.5057 10.7354L12.1851 14.9517Z" fill="white"/>
</svg>
